Coordinates
version=1
nRows=27
nColumns=38
inDegrees=no

Units are S.I. units (second, meters, Newtons, ...)
If the header above contains a line with 'inDegrees', this indicates whether rotational values are in degrees (yes) or radians (no).

endheader
time	pelvis_tilt	pelvis_list	pelvis_rotation	pelvis_tx	pelvis_ty	pelvis_tz	hip_flexion_r	hip_adduction_r	hip_rotation_r	knee_angle_r	ankle_angle_r	subtalar_angle_r	mtp_angle_r	hip_flexion_l	hip_adduction_l	hip_rotation_l	knee_angle_l	ankle_angle_l	subtalar_angle_l	mtp_angle_l	lumbar_extension	lumbar_bending	lumbar_rotation	arm_flex_r	arm_add_r	arm_rot_r	elbow_flex_r	pro_sup_r	wrist_flex_r	wrist_dev_r	arm_flex_l	arm_add_l	arm_rot_l	elbow_flex_l	pro_sup_l	wrist_flex_l	wrist_dev_l
1.05	-0.00204428	0.00488366	-0.0947398	0.725575	1.01061	-0.359815	-0.345603	-0.0942866	-0.149617	-1.00053	-0.242574	-0.0493122	-0.0109204	0.571362	0.00774509	-0.0873845	-0.548427	0.227167	0.0217284	-0.0340679	-0.26806	-0.0527851	0.283168	-0.13424	-0.478284	0.330326	2.28837	1.56014	0.0394043	-0.0111488	-0.782147	-0.653758	-0.284635	2.20046	1.57377	0.067436	-0.0572898
1.05833	0.0095257	0.00398002	-0.0826331	0.725138	1.00799	-0.360564	-0.331853	-0.0949717	-0.145153	-1.10826	-0.227182	-0.0493122	-0.0109204	0.541246	0.0140535	-0.0778109	-0.517277	0.220776	0.0217284	-0.0340679	-0.28294	-0.0538348	0.260263	-0.149283	-0.473947	0.337453	2.26581	1.53739	0.0394043	-0.0111488	-0.765277	-0.663211	-0.304454	2.21472	1.55904	0.067436	-0.0572898
1.06667	0.0222643	0.00459722	-0.0694239	0.724549	1.00472	-0.361517	-0.318277	-0.0967965	-0.142965	-1.21472	-0.213376	-0.0493122	-0.0109204	0.513535	0.0229869	-0.0650522	-0.501982	0.211663	0.0217284	-0.0340679	-0.29926	-0.0557464	0.235002	-0.165314	-0.469557	0.34131	2.24043	1.51273	0.0394043	-0.0111488	-0.745969	-0.674508	-0.32395	2.22844	1.54232	0.067436	-0.0572898
1.075	0.0352012	0.00684657	-0.0554554	0.723763	1.00077	-0.362664	-0.303738	-0.100238	-0.143302	-1.31936	-0.2008	-0.0493122	-0.0109204	0.48949	0.0344972	-0.0496946	-0.503159	0.20109	0.0217284	-0.0340679	-0.316078	-0.0585433	0.207996	-0.182552	-0.465244	0.3417	2.2123	1.48829	0.0394043	-0.0111488	-0.723631	-0.687713	-0.34256	2.24131	1.52495	0.067436	-0.0572898
1.08333	0.0474235	0.0107376	-0.0411884	0.72273	0.996097	-0.363973	-0.286874	-0.105572	-0.145733	-1.42192	-0.188984	-0.0493122	-0.0109204	0.470008	0.0484107	-0.0325193	-0.520692	0.191303	0.0217284	-0.0340679	-0.332536	-0.0622478	0.179889	-0.201023	-0.46108	0.338635	2.18129	1.46594	0.0394043	-0.0111488	-0.697596	-0.702705	-0.359625	2.25295	1.50841	0.067436	-0.0572898
1.09167	0.0582001	0.0161437	-0.0271542	0.721404	0.990754	-0.36539	-0.266293	-0.112742	-0.149248	-1.52224	-0.177486	-0.0493122	-0.0109204	0.455398	0.0643824	-0.0144294	-0.55348	0.185216	0.0217284	-0.0340679	-0.347982	-0.0668501	0.151307	-0.220521	-0.45709	0.332376	2.14715	1.44695	0.0394043	-0.0111488	-0.667192	-0.719166	-0.374433	2.26297	1.49413	0.067436	-0.0572898
1.1	0.0670664	0.0227917	-0.0138985	0.719748	0.984875	-0.366833	-0.240736	-0.121274	-0.152449	-1.62012	-0.165983	-0.0493122	-0.0109204	0.445235	0.0818605	0.00362022	-0.599234	0.185784	0.0217284	-0.0340679	-0.362027	-0.072276	0.12281	-0.240617	-0.45326	0.323418	2.10952	1.43193	0.0394043	-0.0111488	-0.631823	-0.736586	-0.386269	2.271	1.48336	0.067436	-0.0572898
1.10833	0.0738635	0.030267	-0.00192435	0.717754	0.978703	-0.368212	-0.209236	-0.130281	-0.153785	-1.71511	-0.154289	-0.0493122	-0.0109204	0.438315	0.100085	0.0207099	-0.65446	0.195264	0.0217284	-0.0340679	-0.374553	-0.0783612	0.0948689	-0.260731	-0.449564	0.312422	2.06814	1.42076	0.0394043	-0.0111488	-0.591057	-0.754283	-0.394468	2.27672	1.477	0.067436	-0.0572898
1.11667	0.0787253	0.0380543	0.00835716	0.715454	0.972526	-0.369444	-0.171221	-0.138562	-0.151827	-1.80647	-0.142326	-0.0493122	-0.0109204	0.432756	0.118127	0.0360752	-0.714676	0.214649	0.0217284	-0.0340679	-0.385656	-0.0848228	0.0678625	-0.280254	-0.445991	0.300122	2.02297	1.41283	0.0394043	-0.0111488	-0.544717	-0.771425	-0.39849	2.27989	1.47559	0.067436	-0.0572898
1.125	0.0819706	0.0455739	0.0166733	0.712905	0.966593	-0.370468	-0.126582	-0.144795	-0.145537	-1.89308	-0.130047	-0.0493122	-0.0109204	0.426257	0.134988	0.0492514	-0.774915	0.243466	0.0217284	-0.0340679	-0.395552	-0.0912442	0.0420777	-0.298694	-0.442575	0.287212	1.97436	1.40704	0.0394043	-0.0111488	-0.492982	-0.787078	-0.397992	2.28046	1.47914	0.067436	-0.0572898
1.13333	0.0840067	0.0522199	0.0229211	0.710164	0.961105	-0.371267	-0.0756662	-0.147782	-0.13448	-1.97353	-0.11738	-0.0493122	-0.0109204	0.416458	0.149706	0.0601646	-0.83033	0.279987	0.0217284	-0.0340679	-0.404449	-0.0970859	0.0177136	-0.315802	-0.439435	0.274253	1.92319	1.40207	0.0394043	-0.0111488	-0.436471	-0.800254	-0.392902	2.27855	1.48719	0.067436	-0.0572898
1.14167	0.0852056	0.0574212	0.0271786	0.707305	0.956241	-0.37186	-0.0192232	-0.146703	-0.118939	-2.04624	-0.104206	-0.0493122	-0.0109204	0.401305	0.161469	0.0691264	-0.876782	0.321688	0.0217284	-0.0340679	-0.412439	-0.101715	-0.00512496	-0.331649	-0.436786	0.261593	1.87093	1.39654	0.0394043	-0.0111488	-0.376292	-0.809982	-0.383479	2.27453	1.49876	0.067436	-0.0572898
1.15	0.085831	0.0606977	0.0296935	0.704431	0.95216	-0.3723	0.0416827	-0.141292	-0.0999133	-2.10958	-0.0903827	-0.0493122	-0.0109204	0.379318	0.169677	0.0767381	-0.911206	0.365726	0.0217284	-0.0340679	-0.41944	-0.104456	-0.0264546	-0.346623	-0.434931	0.249331	1.8196	1.38921	0.0394043	-0.0111488	-0.314039	-0.815393	-0.370343	2.26902	1.51248	0.067436	-0.0572898
1.15833	0.0860122	0.0616811	0.03088	0.701686	0.948993	-0.372662	0.105787	-0.131902	-0.0789987	-2.16205	-0.0758001	-0.0493122	-0.0109204	0.349738	0.173958	0.0837447	-0.931755	0.409283	0.0217284	-0.0340679	-0.425188	-0.104671	-0.046439	-0.361346	-0.434228	0.237327	1.77151	1.37912	0.0394043	-0.0111488	-0.25172	-0.815823	-0.35444	2.26283	1.52665	0.067436	-0.0572898
1.16667	0.0857315	0.0601445	0.0312869	0.699234	0.94681	-0.373035	0.171731	-0.119424	-0.0581888	-2.20242	-0.0604307	-0.0493122	-0.0109204	0.312519	0.174144	0.0908893	-0.937721	0.449719	0.0217284	-0.0340679	-0.429279	-0.101805	-0.0654018	-0.376539	-0.435024	0.225247	1.72904	1.36578	0.0394043	-0.0111488	-0.191599	-0.810907	-0.336939	2.2569	1.53953	0.067436	-0.0572898
1.175	0.0848458	0.0559874	0.031545	0.697234	0.945624	-0.373505	0.238169	-0.105071	-0.0396061	-2.22983	-0.0443647	-0.0493122	-0.0109204	0.268224	0.170208	0.0987793	-0.929335	0.484624	0.0217284	-0.0340679	-0.431241	-0.095436	-0.0837954	-0.392885	-0.437589	0.212644	1.69425	1.34914	0.0394043	-0.0111488	-0.13597	-0.800648	-0.319055	2.25214	1.54959	0.067436	-0.0572898
1.18333	0.0831274	0.0492184	0.032289	0.695812	0.94541	-0.374145	0.303848	-0.0901231	-0.0252193	-2.2438	-0.0278111	-0.0493122	-0.0109204	0.217861	0.162214	0.107768	-0.907527	0.511788	0.0217284	-0.0340679	-0.430613	-0.0853076	-0.102125	-0.410908	-0.442069	0.199039	1.66858	1.32962	0.0394043	-0.0111488	-0.0868938	-0.785444	-0.301828	2.24932	1.55581	0.067436	-0.0572898
1.19167	0.0803406	0.0399436	0.0340633	0.695056	0.946114	-0.374996	0.367654	-0.0756972	-0.0165819	-2.24426	-0.0110729	-0.0493122	-0.0109204	0.162714	0.150286	0.117851	-0.873715	0.529181	0.0217284	-0.0340679	-0.427032	-0.0713602	-0.120842	-0.430905	-0.448457	0.184	1.65264	1.30807	0.0394043	-0.0111488	-0.0459548	-0.766056	-0.28592	2.24896	1.5578	0.067436	-0.0572898
1.2	0.0763151	0.0283606	0.0372208	0.695006	0.947654	-0.376064	0.428632	-0.0625795	-0.0146206	-2.23154	0.00549162	-0.0493122	-0.0109204	0.104198	0.134617	0.128581	-0.829665	0.534956	0.0217284	-0.0340679	-0.420314	-0.0537584	-0.140234	-0.452926	-0.456595	0.167193	1.64618	1.28581	0.0394043	-0.0111488	-0.0140933	-0.743528	-0.271505	2.25129	1.5558	0.067436	-0.0572898
1.20833	0.0710078	0.0147522	0.0418452	0.695654	0.949933	-0.377325	0.485984	-0.0511392	-0.0195076	-2.20625	0.0215101	-0.0493122	-0.0109204	0.0437635	0.115501	0.139037	-0.777425	0.527513	0.0217284	-0.0340679	-0.410517	-0.0329065	-0.160342	-0.476801	-0.466202	0.148414	1.6482	1.2645	0.0394043	-0.0111488	0.00845067	-0.719067	-0.258277	2.25623	1.5506	0.067436	-0.0572898
1.21667	0.0645405	-0.000508189	0.0477141	0.696943	0.952846	-0.378724	0.539057	-0.0413107	-0.0306427	-2.16921	0.0366386	-0.0493122	-0.0109204	-0.0171547	0.0933635	0.147887	-0.719313	0.505639	0.0217284	-0.0340679	-0.397961	-0.00942788	-0.180929	-0.502175	-0.476895	0.127602	1.65713	1.24596	0.0394043	-0.0111488	0.0220777	-0.693922	-0.245573	2.26346	1.54342	0.067436	-0.0572898
1.225	0.0571748	-0.0169679	0.0543383	0.698784	0.956292	-0.380184	0.58732	-0.0326388	-0.0467544	-2.12135	0.0506102	-0.0493122	-0.0109204	-0.0771775	0.0687831	0.153564	-0.657915	0.4687	0.0217284	-0.0340679	-0.383226	0.0158875	-0.201504	-0.528559	-0.488232	0.104862	1.67113	1.23176	0.0394043	-0.0111488	0.0276812	-0.669267	-0.232576	2.27248	1.5356	0.067436	-0.0572898
1.23333	0.0492724	-0.0341389	0.0610519	0.701053	0.960162	-0.38161	0.630335	-0.0243816	-0.0660977	-2.06356	0.0632842	-0.0493122	-0.0109204	-0.134994	0.0424936	0.154547	-0.59606	0.416874	0.0217284	-0.0340679	-0.367092	0.0421509	-0.221416	-0.555369	-0.499737	0.0804779	1.68831	1.22285	0.0394043	-0.0111488	0.0264518	-0.646117	-0.218522	2.28273	1.52849	0.067436	-0.0572898
1.24167	0.0412272	-0.0515214	0.0671377	0.703617	0.964344	-0.382901	0.667748	-0.0156577	-0.0867007	-1.99661	0.0746833	-0.0493122	-0.0109204	-0.189372	0.015365	0.149689	-0.536748	0.351335	0.0217284	-0.0340679	-0.350441	0.0684498	-0.239976	-0.581952	-0.510936	0.0549107	1.70698	1.21941	0.0394043	-0.0111488	0.0196748	-0.625269	-0.202871	2.29367	1.52317	0.067436	-0.0572898
1.25	0.0333849	-0.068611	0.0719494	0.706334	0.96872	-0.383964	0.699289	-0.00562386	-0.106606	-1.92111	0.0850079	-0.0493122	-0.0109204	-0.239173	-0.0116155	0.138546	-0.483019	0.274349	0.0217284	-0.0340679	-0.334129	0.0939017	-0.25659	-0.607616	-0.521396	0.0287807	1.7257	1.22085	0.0394043	-0.0111488	0.00855513	-0.607268	-0.185406	2.30485	1.52042	0.067436	-0.0572898
1.25833	0.0259765	-0.0848893	0.0750034	0.709075	0.973171	-0.38473	0.724781	0.00633746	-0.124075	-1.83751	0.0946128	-0.0493122	-0.0109204	-0.283381	-0.0373554	0.121609	-0.437787	0.189217	0.0217284	-0.0340679	-0.318878	0.117679	-0.27086	-0.631662	-0.530753	0.00281787	1.7434	1.22607	0.0394043	-0.0111488	-0.00590469	-0.592395	-0.166247	2.31597	1.52069	0.067436	-0.0572898
1.26667	0.0190902	-0.0998048	0.07603	0.711727	0.977571	-0.385166	0.744139	0.0204513	-0.137755	-1.74617	0.103942	-0.0493122	-0.0109204	-0.321145	-0.060666	0.100418	-0.403653	0.100065	0.0217284	-0.0340679	-0.305194	0.139015	-0.282638	-0.65343	-0.538752	-0.0222123	1.75932	1.23367	0.0394043	-0.0111488	-0.0229602	-0.580682	-0.145793	2.32683	1.52414	0.067436	-0.0572898
